<svg width="141" height="34" viewBox="0 0 141 34" fill="none" xmlns="http://www.w3.org/2000/svg">
<g clip-path="url(#clip0_548_1355)">
<path d="M34.1649 0H25.8394L24.004 5.36615L22.0606 11.0481L34.3543 2.79194C35.8298 1.80131 35.7077 0 34.1649 0Z" fill="white"/>
<path d="M0.17719 7.0316C-0.438394 8.83201 0.598628 10.2905 2.49273 10.2905H8.54061L0.432894 34L13.953 23.7086L18.5424 10.2905L22.0607 0H2.5827L0.17719 7.0316Z" fill="white"/>
<path d="M51.7877 25.4933L55.0162 7.02939H56.9861L57.4634 4.27344H45.1792L44.699 7.02939H51.657L48.4295 25.4933H51.7877Z" fill="white"/>
<path d="M62.4648 4.27344H59.3973L58.92 7.02939H59.044C60.7402 7.02939 62.1873 5.86331 62.4639 4.27344H62.4648Z" fill="white"/>
<path d="M71.4258 9.33984C70.4446 9.33984 69.5194 9.58728 68.65 10.0803C67.7815 10.5743 67.1214 11.2491 66.6706 12.1057H66.4964L66.9547 9.57738H63.803L61.011 25.4923H64.2718L65.9509 15.7731C66.0816 15.0821 66.3685 14.4658 66.8127 13.9232C67.2559 13.3807 67.8033 12.956 68.4539 12.6491C69.1046 12.3423 69.8148 12.1885 70.5858 12.1885C70.9276 12.1885 71.2638 12.211 71.5944 12.256C71.9249 12.3009 72.1522 12.3405 72.2762 12.3747L72.8 9.41182C72.6323 9.38393 72.4145 9.36504 72.1455 9.35514C71.8766 9.34434 71.637 9.33984 71.4258 9.33984Z" fill="white"/>
<path d="M72.6986 23.0059C73.0111 23.8967 73.5396 24.5688 74.2858 25.0214C75.0312 25.474 75.9413 25.6998 77.0181 25.6998C78.2758 25.6998 79.3829 25.4182 80.3384 24.8549C81.294 24.2917 82.0346 23.5854 82.5574 22.736H82.7316L82.2411 25.492H85.4478L88.2397 9.57707H84.9676L83.3321 18.8914C83.1796 19.7965 82.85 20.5424 82.3452 21.129C81.8395 21.7166 81.2599 22.1548 80.6055 22.4445C79.9511 22.7342 79.3185 22.88 78.7076 22.88C77.6971 22.88 76.9319 22.5588 76.412 21.9163C75.892 21.2739 75.7235 20.4101 75.9053 19.3259L77.6176 9.57617H74.3569L72.5679 19.6993C72.3425 21.0121 72.386 22.1134 72.6986 23.0041V23.0059Z" fill="white"/>
<path d="M90.2759 14.0236C90.0723 15.1699 90.2854 16.1164 90.9142 16.8623C91.5431 17.6082 92.6132 18.1544 94.1257 18.499L96.8409 19.0892C97.626 19.262 98.1772 19.5103 98.4935 19.8351C98.8098 20.1599 98.9206 20.5675 98.8259 21.0579C98.7312 21.6868 98.3154 22.2222 97.5767 22.664C96.839 23.1057 95.9279 23.3235 94.8445 23.3163C93.8851 23.3163 93.1398 23.1174 92.6085 22.7207C92.0781 22.3239 91.7864 21.7345 91.7363 20.9544L88.5078 21.4106C88.5295 22.8133 89.0712 23.8975 90.1329 24.6641C91.1945 25.4307 92.6776 25.814 94.5821 25.814C95.9128 25.814 97.125 25.6071 98.2188 25.1923C99.3127 24.7775 100.21 24.2044 100.912 23.4719C101.614 22.7395 102.048 21.901 102.215 20.9544C102.411 19.8081 102.188 18.8787 101.545 18.167C100.902 17.4553 99.8383 16.9307 98.3552 16.5924L95.7811 16.0121C94.9013 15.8051 94.2886 15.5424 93.9438 15.2248C93.5982 14.9072 93.4731 14.4924 93.5679 13.9813C93.6626 13.3533 94.0622 12.8368 94.7678 12.4319C95.4733 12.0279 96.2944 11.8255 97.2329 11.8255C97.9016 11.8255 98.4395 11.9272 98.8467 12.1314C99.254 12.3357 99.557 12.5993 99.7578 12.9241C99.9576 13.2489 100.09 13.5944 100.156 13.9606L103.198 13.4631C103.068 12.2133 102.544 11.2182 101.628 10.4795C100.712 9.74076 99.342 9.37096 97.5171 9.37096C96.266 9.37096 95.1248 9.56621 94.0925 9.95671C93.0602 10.3472 92.2079 10.8889 91.5355 11.5835C90.8631 12.2781 90.4426 13.0915 90.2759 14.0236Z" fill="white"/>
<path d="M111.528 5.76564H108.267L107.605 9.57881H110.86L111.528 5.76564Z" fill="white"/>
<path d="M105.159 9.57812L104.734 12.0651H107.173L107.605 9.57812H105.159Z" fill="white"/>
<path d="M110.86 9.57812H107.605L107.173 12.0651H110.423L110.86 9.57812Z" fill="white"/>
<path d="M105.803 23.8561C106.145 24.4914 106.659 24.961 107.346 25.2652C108.032 25.5693 108.805 25.7141 109.663 25.7006C110.187 25.6934 110.632 25.6539 110.999 25.5819C111.367 25.509 111.656 25.4388 111.866 25.3695L111.702 22.8106C111.585 22.8313 111.429 22.8592 111.233 22.8934C111.037 22.9285 110.808 22.9456 110.547 22.9456C110.19 22.9456 109.868 22.8925 109.582 22.7854C109.295 22.6784 109.081 22.475 108.943 22.1745C108.805 21.874 108.787 21.4232 108.888 20.8222L110.423 12.0666H107.173L105.54 21.4646C105.373 22.4246 105.46 23.2227 105.802 23.8579L105.803 23.8561Z" fill="white"/>
<path d="M113.884 12.0651L114.309 9.57812H110.86L110.424 12.0651H113.884Z" fill="white"/>
<path d="M117.722 9.57812H115.124L114.698 12.0651H117.286L117.722 9.57812Z" fill="white"/>
<path d="M114.928 25.4944H118.188L120.536 12.0664H117.286L114.928 25.4944Z" fill="white"/>
<path d="M121.22 8.14878C121.351 7.44427 121.618 6.90532 122.021 6.53282C122.425 6.16032 123.022 5.97317 123.815 5.97317C124.157 5.97317 124.44 6.00286 124.665 6.06134C124.891 6.11983 125.08 6.17021 125.233 6.2116L126.411 3.70398C126.207 3.6212 125.881 3.52943 125.434 3.42956C124.987 3.32968 124.436 3.2793 123.782 3.2793C122.894 3.2793 122.044 3.44305 121.229 3.77146C120.415 4.09987 119.723 4.59384 119.152 5.25336C118.58 5.91288 118.212 6.73976 118.044 7.73489L117.721 9.57939H120.968L121.218 8.14968L121.22 8.14878Z" fill="white"/>
<path d="M124.165 12.0651L124.59 9.57812H120.97L120.536 12.0651H124.165Z" fill="white"/>
<path d="M120.536 12.0651L120.97 9.57812H117.722L117.286 12.0651H120.536Z" fill="white"/>
<path d="M129.347 29.7408C129.947 29.1676 130.487 28.4523 130.967 27.5958L141 9.57812H137.368L130.956 21.9597H130.781L128.709 9.57812H125.35L128.632 25.6379L128.022 26.6951C127.607 27.3924 127.2 27.9026 126.8 28.2238C126.4 28.545 125.973 28.7231 125.519 28.7573C125.064 28.7915 124.554 28.733 123.986 28.581L122.743 31.1192C122.925 31.202 123.21 31.2794 123.599 31.3522C123.988 31.4251 124.426 31.4611 124.913 31.4611C125.801 31.4611 126.61 31.318 127.345 31.031C128.079 30.744 128.747 30.3139 129.347 29.7408H129.347Z" fill="white"/>
</g>
<defs>
<clipPath id="clip0_548_1355">
<rect width="141" height="34" fill="white"/>
</clipPath>
</defs>
</svg>
