<svg width="16" height="16" viewBox="0 0 16 16" fill="none" xmlns="http://www.w3.org/2000/svg">
<path d="M7.28499 7.28889C7.64299 7.86889 8.13199 8.35789 8.71199 8.71589L9.25999 8.38689C9.49899 8.24389 9.80199 8.26489 10.02 8.43889L11.083 9.28889C11.232 9.40789 11.323 9.58489 11.332 9.77589C11.342 9.96589 11.27 10.1519 11.134 10.2849L10.653 10.7579C9.99099 11.4109 8.96599 11.5219 8.17999 11.0249C6.89799 10.1949 5.80599 9.10289 4.97599 7.82089C4.47899 7.03489 4.58999 6.00989 5.24299 5.34789L5.71599 4.86689C5.84899 4.73089 6.03499 4.65889 6.22499 4.66889C6.41499 4.67789 6.59299 4.76889 6.71199 4.91789L7.56199 5.98089C7.73599 6.19889 7.75699 6.50189 7.61299 6.74089L7.28499 7.28889Z" stroke="#7861FF" stroke-linecap="round" stroke-linejoin="round"/>
<path d="M4.57802 13.3232L2.78002 13.6242C2.66802 13.6422 2.55402 13.6062 2.47402 13.5252C2.39302 13.4452 2.35702 13.3312 2.37502 13.2192L2.67602 11.4202C0.921019 8.69417 1.50502 5.08317 4.02902 3.04817C6.55302 1.01317 10.206 1.20817 12.498 3.50117C14.791 5.79317 14.986 9.44617 12.951 11.9702C10.916 14.4942 7.30502 15.0782 4.57802 13.3232Z" stroke="#7861FF" stroke-linecap="round" stroke-linejoin="round"/>
</svg>
