<svg width="16" height="16" viewBox="0 0 16 16" fill="none" xmlns="http://www.w3.org/2000/svg">
<g clip-path="url(#clip0_2014_193)">
<path d="M7.28487 7.28889C7.64287 7.86889 8.13187 8.35789 8.71187 8.71589L9.25987 8.38689C9.49887 8.24389 9.80187 8.26489 10.0199 8.43889L11.0829 9.28889C11.2319 9.40789 11.3229 9.58489 11.3319 9.77589C11.3419 9.96589 11.2699 10.1519 11.1339 10.2849L10.6529 10.7579C9.99087 11.4109 8.96587 11.5219 8.17987 11.0249C6.89787 10.1949 5.80587 9.10289 4.97587 7.82089C4.47887 7.03489 4.58987 6.00989 5.24287 5.34789L5.71587 4.86689C5.84887 4.73089 6.03487 4.65889 6.22487 4.66889C6.41487 4.67789 6.59287 4.76889 6.71187 4.91789L7.56187 5.98089C7.73587 6.19889 7.75687 6.50189 7.61287 6.74089L7.28487 7.28889Z" stroke="#7861FF" stroke-linecap="round" stroke-linejoin="round"/>
<path d="M4.57777 13.3232L2.77977 13.6242C2.66777 13.6422 2.55377 13.6062 2.47377 13.5252C2.39277 13.4452 2.35677 13.3312 2.37477 13.2192L2.67577 11.4202C0.920774 8.69417 1.50477 5.08317 4.02877 3.04817C6.55277 1.01317 10.2058 1.20817 12.4978 3.50117C14.7908 5.79317 14.9858 9.44617 12.9508 11.9702C10.9158 14.4942 7.30477 15.0782 4.57777 13.3232Z" stroke="#7861FF" stroke-linecap="round" stroke-linejoin="round"/>
</g>
<defs>
<clipPath id="clip0_2014_193">
<rect width="16" height="16" fill="white"/>
</clipPath>
</defs>
</svg>
